<svg xmlns="http://www.w3.org/2000/svg" width="924" height="142" viewBox="0 0 924 142" font-family="ui-monospace, SFMono-Regular, Menlo, Consolas, monospace" font-size="15">
<rect width="924" height="142" rx="10" fill="#282a36"/>
<circle cx="22" cy="17" r="6" fill="#ff5f56"/>
<circle cx="42" cy="17" r="6" fill="#ffbd2e"/>
<circle cx="62" cy="17" r="6" fill="#27c93f"/>
<text x="462" y="22" fill="#6272a4" font-size="13" text-anchor="middle">dracula · palette</text>
<rect x="18" y="46" width="104" height="38" rx="5" fill="#21222c"/>
<text x="70" y="69" fill="#f5f5f5" font-size="12" text-anchor="middle">black</text>
<rect x="130" y="46" width="104" height="38" rx="5" fill="#ff5555"/>
<text x="182" y="69" fill="#f5f5f5" font-size="12" text-anchor="middle">red</text>
<rect x="242" y="46" width="104" height="38" rx="5" fill="#50fa7b"/>
<text x="294" y="69" fill="#11111b" font-size="12" text-anchor="middle">green</text>
<rect x="354" y="46" width="104" height="38" rx="5" fill="#f1fa8c"/>
<text x="406" y="69" fill="#11111b" font-size="12" text-anchor="middle">yellow</text>
<rect x="466" y="46" width="104" height="38" rx="5" fill="#bd93f9"/>
<text x="518" y="69" fill="#11111b" font-size="12" text-anchor="middle">blue</text>
<rect x="578" y="46" width="104" height="38" rx="5" fill="#ff79c6"/>
<text x="630" y="69" fill="#11111b" font-size="12" text-anchor="middle">magenta</text>
<rect x="690" y="46" width="104" height="38" rx="5" fill="#8be9fd"/>
<text x="742" y="69" fill="#11111b" font-size="12" text-anchor="middle">cyan</text>
<rect x="802" y="46" width="104" height="38" rx="5" fill="#f8f8f2"/>
<text x="854" y="69" fill="#11111b" font-size="12" text-anchor="middle">white</text>
<rect x="18" y="92" width="104" height="38" rx="5" fill="#6272a4"/>
<text x="70" y="115" fill="#f5f5f5" font-size="12" text-anchor="middle">+black</text>
<rect x="130" y="92" width="104" height="38" rx="5" fill="#ff6e6e"/>
<text x="182" y="115" fill="#11111b" font-size="12" text-anchor="middle">+red</text>
<rect x="242" y="92" width="104" height="38" rx="5" fill="#69ff94"/>
<text x="294" y="115" fill="#11111b" font-size="12" text-anchor="middle">+green</text>
<rect x="354" y="92" width="104" height="38" rx="5" fill="#ffffa5"/>
<text x="406" y="115" fill="#11111b" font-size="12" text-anchor="middle">+yellow</text>
<rect x="466" y="92" width="104" height="38" rx="5" fill="#d6acff"/>
<text x="518" y="115" fill="#11111b" font-size="12" text-anchor="middle">+blue</text>
<rect x="578" y="92" width="104" height="38" rx="5" fill="#ff92df"/>
<text x="630" y="115" fill="#11111b" font-size="12" text-anchor="middle">+magenta</text>
<rect x="690" y="92" width="104" height="38" rx="5" fill="#a4ffff"/>
<text x="742" y="115" fill="#11111b" font-size="12" text-anchor="middle">+cyan</text>
<rect x="802" y="92" width="104" height="38" rx="5" fill="#ffffff"/>
<text x="854" y="115" fill="#11111b" font-size="12" text-anchor="middle">+white</text>
</svg>